<svg class="login__logo" style="fill:#2F5D9D" xmlns="http://www.w3.org/2000/svg" version="1.1" x="0" y="0" viewBox="0 0 379.7 131.7" xml:space="preserve"><path d="M0 79.2l21.6-4.5 6.3 26.9 0.1 0 8.1-29.9 22-4.6L58 119.6l-14.4 3 0.5-36.3 -0.1 0 -9.3 38.1 -11.5 2.4 -9.1-34.3 -0.1 0 0.3 36.1 -14.4 3L0 79.2zM77.8 96.2L60.4 66.6l15.6-3.2 8.7 17.7L93 59.8l18.2-3.8L93.3 92.8l0.1 19.4 -15.5 3.2L77.8 96.2zM144.9 64.2c-1.9-8.8-7.1-10.6-15.7-8.8C123 56.7 117 61 118.5 68.1c1.1 5.4 5.7 6.2 10.2 6.5l5.7 0.5c7.3 0.7 14.4 1.5 16.2 10 1 4.9 0.1 16.1-16.2 19.6 -11.3 2.4-20.6-1.4-22.6-13.7l4.8-1c1.5 9.9 8.2 12.4 17.3 10.5 6.6-1.4 13.6-6.2 12.1-13.8 -1.5-7.1-8.7-6.9-14.6-7.4l-5.2-0.4c-6.2-0.5-11-3.1-12.4-9.6 -2.1-10.1 5.9-16.2 14.8-18.1 10.2-2.1 19.3 0.2 21.2 12L144.9 64.2zM157.1 46.4l4.8-1 0 33.4c0 1.6 0.1 2.9 0.4 4.5 1.2 7.4 7.7 9.8 16 8.1 9-1.9 13.5-7.8 13.5-16.6l0-35.5 4.8-1 0 35.9c0 12.3-6.6 19.1-18.1 21.5 -8.8 1.8-18.8-0.2-20.9-10.7 -0.2-1.1-0.4-2.5-0.4-4.2L157.1 46.4zM205.6 36.3l19.5-4.1c7.5-1.6 14.5 0.2 16.2 8.6 1.4 6.6-2 12.4-8.3 14.8l0 0.1c5.3-0.5 9.7 3.3 10.8 8.6 2.5 11.8-6.4 17.8-16.9 20l-21.7 4.5L205.6 36.3zM210 83.6l17-3.6c7-1.5 13.7-6.2 12-14.1 -1.5-7.3-7.6-7.7-13.8-6.5l-15.1 3.2L210 83.6zM210.3 58.3l15.8-3.3c6.5-1.5 11.9-5.9 10.5-12.7 -1.2-5.7-5.7-7.1-10.7-6l-15.5 3.2L210.3 58.3zM266.8 23.5l5.2-1.1 19.6 48.4 -5 1 -5.8-15.1 -23 4.8 -6 17.6 -5.4 1.1L266.8 23.5zM259.5 57l19.9-4.1 -9.8-25.6 -0.1 0L259.5 57zM296.8 17.3l21.4-4.5c8.4-1.7 14.1 1.5 15.8 9.8 1.5 7.4-2.6 14.4-9.9 16.4l0 0.1c4.9 0 7.3 3.1 8.3 7.7 0.7 3.5 0.8 7.2 1.5 10.6 0.2 1.2 0.8 3.4 1.8 4.2l-4.9 1c-0.6-0.2-1.7-4.5-1.8-5 -0.6-3-0.6-6.2-1.2-9.2 -1-4.8-3.5-7.8-8.6-6.7l-17.8 3.7 -0.1 23.3 -4.8 1L296.8 17.3zM301.4 41.2l17-3.5c7.3-1.5 12.4-6.3 10.8-13.7 -1.2-5.9-4.3-8.3-10.4-7l-17.3 3.6L301.4 41.2zM340.1 8.2l4.8-1 0 33.4c0 1.6 0.1 2.9 0.4 4.5 1.2 7.4 7.7 9.8 16 8.1 9-1.9 13.5-7.8 13.5-16.6l0-35.5 4.8-1 0 35.9c0 12.3-6.6 19.1-18.1 21.5 -8.8 1.8-18.8-0.2-20.9-10.7 -0.2-1.1-0.4-2.5-0.4-4.2L340.1 8.2z"></path><rect x="189.8" width="0" height="4.2"></rect><polygon points="0 38.8 0 43 189.8 4.2 189.8 0 "></polygon><polygon points="0 38.8 0 43 189.8 4.2 189.8 0 "></polygon><rect x="379.7" y="88.7" width="0" height="4.2"></rect><polygon points="189.8 127.5 189.8 131.7 379.7 92.9 379.7 88.7 "></polygon><polygon points="189.8 127.5 189.8 131.7 379.7 92.9 379.7 88.7 "></polygon><polygon points="379.7 72.8 111.7 127.5 111.7 131.7 379.7 77 "></polygon><polygon points="267.9 0 0 54.8 0 58.9 267.9 4.2 "></polygon></svg>